<svg width="16" height="16" viewBox="0 0 16 16" fill="none" xmlns="http://www.w3.org/2000/svg">
<g clip-path="url(#clip0_7649_2856)">
<path d="M4 12.6654C4 13.019 4.14048 13.3581 4.39052 13.6082C4.64057 13.8582 4.97971 13.9987 5.33333 13.9987C5.68696 13.9987 6.02609 13.8582 6.27614 13.6082C6.52619 13.3581 6.66667 13.019 6.66667 12.6654C6.66667 12.3117 6.52619 11.9726 6.27614 11.7226C6.02609 11.4725 5.68696 11.332 5.33333 11.332C4.97971 11.332 4.64057 11.4725 4.39052 11.7226C4.14048 11.9726 4 12.3117 4 12.6654Z" stroke="#23262F" stroke-width="1.5" stroke-linecap="round" stroke-linejoin="round"/>
<path d="M10.6666 12.6654C10.6666 13.019 10.8071 13.3581 11.0572 13.6082C11.3072 13.8582 11.6463 13.9987 12 13.9987C12.3536 13.9987 12.6927 13.8582 12.9428 13.6082C13.1928 13.3581 13.3333 13.019 13.3333 12.6654C13.3333 12.3117 13.1928 11.9726 12.9428 11.7226C12.6927 11.4725 12.3536 11.332 12 11.332C11.6463 11.332 11.3072 11.4725 11.0572 11.7226C10.8071 11.9726 10.6666 12.3117 10.6666 12.6654Z" stroke="#23262F" stroke-width="1.5" stroke-linecap="round" stroke-linejoin="round"/>
<path d="M1.33337 3.33333H3.00004L4.08804 6.598C4.35351 7.39459 4.86293 8.08744 5.54412 8.57838C6.22531 9.06932 7.04371 9.33344 7.88337 9.33333H9.66671C10.6392 9.33333 11.5718 8.94702 12.2594 8.25939C12.9471 7.57176 13.3334 6.63913 13.3334 5.66667C13.3334 4.69421 12.9471 3.76158 12.2594 3.07394C11.5718 2.38631 10.6392 2 9.66671 2H9.33337V6" stroke="#23262F" stroke-width="1.5" stroke-linecap="round" stroke-linejoin="round"/>
<path d="M4 6H13.3333" stroke="#23262F" stroke-width="1.5" stroke-linecap="round" stroke-linejoin="round"/>
<path d="M6 11.332L6.66667 9.33203" stroke="#23262F" stroke-width="1.5" stroke-linecap="round" stroke-linejoin="round"/>
<path d="M10.6666 9.33203L11.3333 11.332" stroke="#23262F" stroke-width="1.5" stroke-linecap="round" stroke-linejoin="round"/>
</g>
<defs>
<clipPath id="clip0_7649_2856">
<rect width="16" height="16" fill="white"/>
</clipPath>
</defs>
</svg>
