<svg xmlns="http://www.w3.org/2000/svg" width="16" height="16" viewBox="0 0 16 16" fill="none">
  <path fill-rule="evenodd" clip-rule="evenodd" d="M11.8279 5.33333H4.17166C3.40256 5.33333 2.79294 5.98224 2.84092 6.74984L3.17425 12.0832C3.21817 12.7859 3.8009 13.3333 4.50499 13.3333H11.4946C12.1987 13.3333 12.7814 12.7859 12.8253 12.0832L13.1587 6.74984C13.2066 5.98224 12.597 5.33333 11.8279 5.33333ZM4.17166 4C2.63347 4 1.41423 5.29781 1.51018 6.83301L1.84352 12.1663C1.93135 13.5718 3.09682 14.6667 4.50499 14.6667H11.4946C12.9028 14.6667 14.0682 13.5718 14.1561 12.1663L14.4894 6.83301C14.5853 5.29781 13.3661 4 11.8279 4H4.17166Z" fill="#FCFCFD"/>
  <path fill-rule="evenodd" clip-rule="evenodd" d="M4.6665 4.66536C4.6665 2.82442 6.15889 1.33203 7.99984 1.33203C9.84079 1.33203 11.3332 2.82442 11.3332 4.66536V5.9987C11.3332 6.36689 11.0347 6.66536 10.6665 6.66536C10.2983 6.66536 9.99984 6.36689 9.99984 5.9987V4.66536C9.99984 3.5608 9.10441 2.66536 7.99984 2.66536C6.89527 2.66536 5.99984 3.5608 5.99984 4.66536V5.9987C5.99984 6.36689 5.70136 6.66536 5.33317 6.66536C4.96498 6.66536 4.6665 6.36689 4.6665 5.9987V4.66536Z" fill="#FCFCFD"/>
</svg>