<svg width="16" height="16" viewBox="0 0 16 16" fill="none" xmlns="http://www.w3.org/2000/svg">
<g clip-path="url(#clip0_7649_2836)">
<path d="M4.35323 13.3363C5.18717 13.3363 5.8632 12.6603 5.8632 11.8264C5.8632 10.9924 5.18717 10.3164 4.35323 10.3164C3.5193 10.3164 2.84326 10.9924 2.84326 11.8264C2.84326 12.6603 3.5193 13.3363 4.35323 13.3363Z" stroke="#23262F" stroke-width="1.5" stroke-linecap="round" stroke-linejoin="round"/>
<path d="M11.9031 13.3363C12.737 13.3363 13.4131 12.6603 13.4131 11.8264C13.4131 10.9924 12.737 10.3164 11.9031 10.3164C11.0692 10.3164 10.3931 10.9924 10.3931 11.8264C10.3931 12.6603 11.0692 13.3363 11.9031 13.3363Z" stroke="#23262F" stroke-width="1.5" stroke-linecap="round" stroke-linejoin="round"/>
<path d="M2.84328 11.8244H1.33331V7.29446L2.84328 3.51953H9.63816L12.6581 7.29446H13.4131C13.8136 7.29446 14.1976 7.45355 14.4808 7.73672C14.764 8.0199 14.9231 8.40396 14.9231 8.80443V11.8244H13.4131M10.3931 11.8244H5.86323M1.33331 7.29446H12.6581M8.12818 7.29446V3.51953" stroke="#23262F" stroke-width="1.5" stroke-linecap="round" stroke-linejoin="round"/>
</g>
<defs>
<clipPath id="clip0_7649_2836">
<rect width="16" height="16" fill="white"/>
</clipPath>
</defs>
</svg>
