<svg xmlns="http://www.w3.org/2000/svg" width="20" height="20" viewBox="0 0 20 20" fill="none">
<path d="M10.0001 1.66797C9.53984 1.66797 9.16675 2.04106 9.16675 2.5013V4.16797C9.16675 4.62821 9.53984 5.0013 10.0001 5.0013C10.4603 5.0013 10.8334 4.62821 10.8334 4.16797V2.5013C10.8334 2.04106 10.4603 1.66797 10.0001 1.66797Z" fill="#353945"/>
<path d="M10.0001 15.0013C9.53984 15.0013 9.16675 15.3744 9.16675 15.8346V17.5013C9.16675 17.9615 9.53984 18.3346 10.0001 18.3346C10.4603 18.3346 10.8334 17.9615 10.8334 17.5013V15.8346C10.8334 15.3744 10.4603 15.0013 10.0001 15.0013Z" fill="#353945"/>
<path d="M17.5001 9.16797C17.9603 9.16797 18.3334 9.54106 18.3334 10.0013C18.3334 10.4615 17.9603 10.8346 17.5001 10.8346H15.8334C15.3732 10.8346 15.0001 10.4615 15.0001 10.0013C15.0001 9.54106 15.3732 9.16797 15.8334 9.16797H17.5001Z" fill="#353945"/>
<path d="M5.00008 10.0013C5.00008 9.54106 4.62699 9.16797 4.16675 9.16797H2.50008C2.03984 9.16797 1.66675 9.54106 1.66675 10.0013C1.66675 10.4615 2.03984 10.8346 2.50008 10.8346H4.16675C4.62699 10.8346 5.00008 10.4615 5.00008 10.0013Z" fill="#353945"/>
<path d="M14.7142 4.10883C15.0396 3.78339 15.5672 3.78339 15.8927 4.10883C16.2181 4.43426 16.2181 4.9619 15.8927 5.28734L14.7142 6.46585C14.3887 6.79129 13.8611 6.79129 13.5357 6.46585C13.2102 6.14041 13.2102 5.61278 13.5357 5.28734L14.7142 4.10883Z" fill="#353945"/>
<path d="M6.46458 13.5369C6.13914 13.2115 5.61151 13.2115 5.28607 13.5369L4.10756 14.7154C3.78212 15.0409 3.78212 15.5685 4.10756 15.894C4.433 16.2194 4.96063 16.2194 5.28607 15.894L6.46458 14.7154C6.79002 14.39 6.79002 13.8624 6.46458 13.5369Z" fill="#353945"/>
<path d="M15.8927 14.7154C16.2181 15.0408 16.2181 15.5685 15.8927 15.8939C15.5672 16.2193 15.0396 16.2193 14.7141 15.8939L13.5356 14.7154C13.2102 14.39 13.2102 13.8623 13.5356 13.5369C13.8611 13.2114 14.3887 13.2114 14.7141 13.5369L15.8927 14.7154Z" fill="#353945"/>
<path d="M6.46456 6.4658C6.78999 6.14037 6.78999 5.61273 6.46456 5.28729L5.28605 4.10878C4.96061 3.78334 4.43297 3.78334 4.10753 4.10878C3.7821 4.43422 3.7821 4.96185 4.10753 5.28729L5.28605 6.4658C5.61148 6.79124 6.13912 6.79124 6.46456 6.4658Z" fill="#353945"/>
<path fill-rule="evenodd" clip-rule="evenodd" d="M10.0001 11.668C10.9206 11.668 11.6667 10.9218 11.6667 10.0013C11.6667 9.08083 10.9206 8.33464 10.0001 8.33464C9.07961 8.33464 8.33341 9.08083 8.33341 10.0013C8.33341 10.9218 9.07961 11.668 10.0001 11.668ZM10.0001 13.3346C11.841 13.3346 13.3334 11.8423 13.3334 10.0013C13.3334 8.16035 11.841 6.66797 10.0001 6.66797C8.15913 6.66797 6.66675 8.16035 6.66675 10.0013C6.66675 11.8423 8.15913 13.3346 10.0001 13.3346Z" fill="#353945"/>
</svg>