<svg width="40" height="40" viewBox="0 0 40 40" fill="none" xmlns="http://www.w3.org/2000/svg">
<path d="M24.15 25.0487V25.0488L24.1585 25.0486L27.0919 24.9986L27.1055 24.9984L27.119 24.9974C27.5668 24.9655 27.9575 24.6449 28.0556 24.1868L28.0572 24.1795L28.0585 24.1722L28.6419 20.9888L28.6419 20.9888L28.6433 20.9809C28.744 20.3767 28.2762 19.8154 27.65 19.8154V19.8153L27.643 19.8154L24.0972 19.8654C23.9066 19.8639 23.7587 19.7171 23.7499 19.5343L23.6834 15.4655L23.6917 15.4653L27.6882 15.3987C28.2453 15.3962 28.6834 14.9567 28.6834 14.3987H28.6835L28.6833 14.3904L28.6167 10.3938C28.6141 9.83664 28.1746 9.3987 27.6167 9.3987V9.39865L27.6093 9.39876L23.1093 9.46544L23.1077 9.46546C20.0667 9.52042 17.6451 12.0131 17.7001 15.0577L17.7001 15.0578L17.7835 19.6411L17.7834 19.6411L17.7837 19.6499C17.7897 19.8192 17.6619 19.9729 17.4528 19.9822L15.4618 20.0154C14.9047 20.0179 14.4667 20.4575 14.4667 21.0153H14.4667L14.4668 21.0232L14.5167 24.1866C14.5191 24.7439 14.9588 25.182 15.5167 25.182V25.1821L15.525 25.182L17.52 25.1487C17.7104 25.1504 17.858 25.2972 17.8669 25.4797L18.0167 34.9733L18.0168 34.9743C18.0285 35.6293 17.5025 36.1654 16.85 36.1654H13.0167C10.0828 36.1654 7.80137 35.2928 6.25381 33.7433C4.70618 32.1937 3.83337 29.9079 3.83337 26.9654V13.0154C3.83337 10.0815 4.70597 7.79987 6.25359 6.25225C7.80122 4.70463 10.0828 3.83203 13.0167 3.83203H26.9834C29.9173 3.83203 32.1989 4.70463 33.7465 6.25225C35.2941 7.79987 36.1667 10.0815 36.1667 13.0154V26.982C36.1667 29.9159 35.2941 32.1975 33.7465 33.7451C32.1989 35.2928 29.9173 36.1654 26.9834 36.1654H25C24.3595 36.1654 23.8334 35.6392 23.8334 34.9987V25.3821C23.8334 25.195 23.9892 25.0487 24.15 25.0487Z" fill="#316FF6" stroke="#316FF6"/>
</svg>
