<svg width="40" height="40" viewBox="0 0 40 40" fill="none" xmlns="http://www.w3.org/2000/svg">
<path d="M26.9833 3.33203H13.0166C6.94992 3.33203 3.33325 6.9487 3.33325 13.0154V26.9654C3.33325 33.0487 6.94992 36.6654 13.0166 36.6654H26.9666C33.0333 36.6654 36.6499 33.0487 36.6499 26.982V13.0154C36.6666 6.9487 33.0499 3.33203 26.9833 3.33203ZM19.9999 26.4654C16.4333 26.4654 13.5333 23.5654 13.5333 19.9987C13.5333 16.432 16.4333 13.532 19.9999 13.532C23.5666 13.532 26.4666 16.432 26.4666 19.9987C26.4666 23.5654 23.5666 26.4654 19.9999 26.4654ZM29.8666 11.4654C29.7833 11.6654 29.6666 11.8487 29.5166 12.0154C29.3499 12.1654 29.1666 12.282 28.9666 12.3654C28.7666 12.4487 28.5499 12.4987 28.3333 12.4987C27.8833 12.4987 27.4666 12.332 27.1499 12.0154C26.9999 11.8487 26.8833 11.6654 26.7999 11.4654C26.7166 11.2654 26.6666 11.0487 26.6666 10.832C26.6666 10.6154 26.7166 10.3987 26.7999 10.1987C26.8833 9.98203 26.9999 9.81536 27.1499 9.6487C27.5333 9.26536 28.1166 9.08203 28.6499 9.1987C28.7666 9.21536 28.8666 9.2487 28.9666 9.2987C29.0666 9.33203 29.1666 9.38203 29.2666 9.4487C29.3499 9.4987 29.4333 9.58203 29.5166 9.6487C29.6666 9.81536 29.7833 9.98203 29.8666 10.1987C29.9499 10.3987 29.9999 10.6154 29.9999 10.832C29.9999 11.0487 29.9499 11.2654 29.8666 11.4654Z" fill="url(#paint0_linear_7702_784)"/>
<defs>
<linearGradient id="paint0_linear_7702_784" x1="19.9916" y1="3.33203" x2="19.9916" y2="36.6654" gradientUnits="userSpaceOnUse">
<stop stop-color="#922FB2"/>
<stop offset="0.473958" stop-color="#F23383"/>
<stop offset="1" stop-color="#F4A958"/>
</linearGradient>
</defs>
</svg>
