<svg xmlns="http://www.w3.org/2000/svg" width="16" height="16" viewBox="0 0 16 16" fill="none">
<path fill-rule="evenodd" clip-rule="evenodd" d="M8.00004 13.332C10.9456 13.332 13.3334 10.9442 13.3334 7.9987C13.3334 5.05318 10.9456 2.66536 8.00004 2.66536C5.05452 2.66536 2.66671 5.05318 2.66671 7.9987C2.66671 10.9442 5.05452 13.332 8.00004 13.332ZM8.00004 14.6654C11.6819 14.6654 14.6667 11.6806 14.6667 7.9987C14.6667 4.3168 11.6819 1.33203 8.00004 1.33203C4.31814 1.33203 1.33337 4.3168 1.33337 7.9987C1.33337 11.6806 4.31814 14.6654 8.00004 14.6654Z" fill="#777E91"/>
<path fill-rule="evenodd" clip-rule="evenodd" d="M9.16441 12.1165C9.65688 11.1315 9.99996 9.67754 9.99996 7.9987C9.99996 6.31986 9.65688 4.86588 9.16441 3.88094C8.63207 2.81625 8.14333 2.66536 7.99996 2.66536C7.85659 2.66536 7.36785 2.81625 6.83551 3.88094C6.34304 4.86588 5.99996 6.31986 5.99996 7.9987C5.99996 9.67754 6.34304 11.1315 6.83551 12.1165C7.36785 13.1811 7.85659 13.332 7.99996 13.332C8.14333 13.332 8.63207 13.1811 9.16441 12.1165ZM7.99996 14.6654C9.84091 14.6654 11.3333 11.6806 11.3333 7.9987C11.3333 4.3168 9.84091 1.33203 7.99996 1.33203C6.15901 1.33203 4.66663 4.3168 4.66663 7.9987C4.66663 11.6806 6.15901 14.6654 7.99996 14.6654Z" fill="#777E91"/>
<path fill-rule="evenodd" clip-rule="evenodd" d="M14.6338 8.66536C14.6556 8.44609 14.6667 8.2237 14.6667 7.9987C14.6667 7.7737 14.6556 7.5513 14.6338 7.33203H1.36629C1.34452 7.5513 1.33337 7.7737 1.33337 7.9987C1.33337 8.2237 1.34452 8.44609 1.36629 8.66536H14.6338Z" fill="#777E91"/>
</svg>