<svg xmlns="http://www.w3.org/2000/svg" width="16" height="16" viewBox="0 0 16 16" fill="none">
<path fill-rule="evenodd" clip-rule="evenodd" d="M12.6666 4.0013H3.33331C2.96512 4.0013 2.66665 4.29978 2.66665 4.66797V12.668C2.66665 13.0362 2.96512 13.3346 3.33331 13.3346H12.6666C13.0348 13.3346 13.3333 13.0362 13.3333 12.668V4.66797C13.3333 4.29978 13.0348 4.0013 12.6666 4.0013ZM3.33331 2.66797C2.22874 2.66797 1.33331 3.5634 1.33331 4.66797V12.668C1.33331 13.7725 2.22874 14.668 3.33331 14.668H12.6666C13.7712 14.668 14.6666 13.7725 14.6666 12.668V4.66797C14.6666 3.5634 13.7712 2.66797 12.6666 2.66797H3.33331Z" fill="#777E91"/>
<path fill-rule="evenodd" clip-rule="evenodd" d="M6.66667 8C6.29848 8 6 8.29848 6 8.66667C6 9.03486 6.29848 9.33333 6.66667 9.33333H11.3333C11.7015 9.33333 12 9.03486 12 8.66667C12 8.29848 11.7015 8 11.3333 8H6.66667ZM4.66667 10.6667C4.29848 10.6667 4 10.9651 4 11.3333C4 11.7015 4.29848 12 4.66667 12H8.66667C9.03486 12 9.33333 11.7015 9.33333 11.3333C9.33333 10.9651 9.03486 10.6667 8.66667 10.6667H4.66667Z" fill="#777E91"/>
<path fill-rule="evenodd" clip-rule="evenodd" d="M4.66667 1.33203C4.29848 1.33203 4 1.63051 4 1.9987V4.66536C4 5.03355 4.29848 5.33203 4.66667 5.33203C5.03486 5.33203 5.33333 5.03355 5.33333 4.66536V1.9987C5.33333 1.63051 5.03486 1.33203 4.66667 1.33203ZM11.3333 1.33203C10.9651 1.33203 10.6667 1.63051 10.6667 1.9987V4.66536C10.6667 5.03355 10.9651 5.33203 11.3333 5.33203C11.7015 5.33203 12 5.03355 12 4.66536V1.9987C12 1.63051 11.7015 1.33203 11.3333 1.33203Z" fill="#777E91"/>
</svg>