<svg xmlns="http://www.w3.org/2000/svg" width="16" height="16" viewBox="0 0 16 16" fill="none">
<path fill-rule="evenodd" clip-rule="evenodd" d="M6.66671 12V14C6.66671 14.3682 6.96518 14.6667 7.33337 14.6667H8.66671C9.0349 14.6667 9.33337 14.3682 9.33337 14V12H10.6667V14C10.6667 15.1046 9.77128 16 8.66671 16H7.33337C6.2288 16 5.33337 15.1046 5.33337 14V12H6.66671Z" fill="#777E91"/>
<path fill-rule="evenodd" clip-rule="evenodd" d="M9.99996 8.8569L10.4993 8.45658C11.4165 7.72134 12 6.59593 12 5.33333C12 3.12419 10.2091 1.33333 7.99996 1.33333C5.79082 1.33333 3.99996 3.12419 3.99996 5.33333C3.99996 6.59593 4.5834 7.72134 5.50059 8.45658L5.99996 8.8569V10.6667C5.99996 11.0349 6.29844 11.3333 6.66663 11.3333H9.33329C9.70148 11.3333 9.99996 11.0349 9.99996 10.6667V8.8569ZM11.3333 9.49691V10.6667C11.3333 11.7712 10.4379 12.6667 9.33329 12.6667H6.66663C5.56206 12.6667 4.66663 11.7712 4.66663 10.6667V9.49691C3.44734 8.5195 2.66663 7.01759 2.66663 5.33333C2.66663 2.38781 5.05444 0 7.99996 0C10.9455 0 13.3333 2.38781 13.3333 5.33333C13.3333 7.01759 12.5526 8.5195 11.3333 9.49691Z" fill="#777E91"/>
<path d="M7.13807 5.52729C6.87772 5.26694 6.45561 5.26694 6.19526 5.52729C5.93491 5.78764 5.93491 6.20975 6.19526 6.4701L7.33333 7.60817V11.332H8.66667V7.60817L9.80474 6.4701C10.0651 6.20975 10.0651 5.78764 9.80474 5.52729C9.54439 5.26694 9.12228 5.26694 8.86193 5.52729L8 6.38922L7.13807 5.52729Z" fill="#777E91"/>
</svg>