<svg xmlns="http://www.w3.org/2000/svg" width="20" height="20" viewBox="0 0 20 20" fill="none">
<g clip-path="url(#clip0_5979_13992)">
<path fill-rule="evenodd" clip-rule="evenodd" d="M13.3333 7.4987L15.975 4.41668C16.9017 3.33556 16.1335 1.66537 14.7096 1.66537L3.33325 1.66537L3.33325 13.332L14.7096 13.332C16.1335 13.332 16.9017 11.6618 15.975 10.5807L13.3333 7.4987ZM4.99992 11.6654L14.7096 11.6654L11.1381 7.4987L14.7096 3.33203L4.99992 3.33203L4.99992 11.6654Z" fill="#353945"/>
<path d="M3.33325 0.833334C3.33325 0.373096 3.70635 0 4.16659 0C4.62682 0 4.99992 0.373096 4.99992 0.833333L4.99992 19.1667C4.99992 19.6269 4.62682 20 4.16659 20C3.70635 20 3.33325 19.6269 3.33325 19.1667L3.33325 0.833334Z" fill="#353945"/>
</g>
<defs>
<clipPath id="clip0_5979_13992">
<rect width="20" height="20" fill="white"/>
</clipPath>
</defs>
</svg>