<svg xmlns="http://www.w3.org/2000/svg" width="16" height="16" viewBox="0 0 16 16" fill="none">
<path fill-rule="evenodd" clip-rule="evenodd" d="M11.0944 10.8309C12.0282 9.53469 12.6667 8.11 12.6667 6.66797C12.6667 4.09064 10.5773 2.0013 8 2.0013C5.42267 2.0013 3.33333 4.09064 3.33333 6.66797C3.33333 8.11 3.97179 9.53469 4.90564 10.8309C5.83245 12.1174 6.97209 13.1682 7.78459 13.8336C7.91787 13.9428 8.08213 13.9428 8.21541 13.8336C9.02791 13.1682 10.1675 12.1174 11.0944 10.8309ZM9.06026 14.8651C10.7831 13.4541 14 10.3291 14 6.66797C14 3.35426 11.3137 0.667969 8 0.667969C4.68629 0.667969 2 3.35426 2 6.66797C2 10.3291 5.21692 13.4541 6.93974 14.8651C7.56437 15.3767 8.43563 15.3767 9.06026 14.8651Z" fill="#353945"/>
<path fill-rule="evenodd" clip-rule="evenodd" d="M7.99992 5.33333C7.26354 5.33333 6.66659 5.93029 6.66659 6.66667C6.66659 7.40305 7.26354 8 7.99992 8C8.7363 8 9.33325 7.40305 9.33325 6.66667C9.33325 5.93029 8.7363 5.33333 7.99992 5.33333ZM5.33325 6.66667C5.33325 5.19391 6.52716 4 7.99992 4C9.47268 4 10.6666 5.19391 10.6666 6.66667C10.6666 8.13943 9.47268 9.33333 7.99992 9.33333C6.52716 9.33333 5.33325 8.13943 5.33325 6.66667Z" fill="#353945"/>
</svg>