<svg xmlns="http://www.w3.org/2000/svg" width="20" height="20" viewBox="0 0 20 20" fill="none">
<path fill-rule="evenodd" clip-rule="evenodd" d="M8.33341 15V17.5C8.33341 17.9602 8.70651 18.3333 9.16675 18.3333H10.8334C11.2937 18.3333 11.6667 17.9602 11.6667 17.5V15H13.3334V17.5C13.3334 18.8807 12.2141 20 10.8334 20H9.16675C7.78604 20 6.66675 18.8807 6.66675 17.5V15H8.33341Z" fill="#353945"/>
<path fill-rule="evenodd" clip-rule="evenodd" d="M12.4999 11.0711L13.1241 10.5707C14.2706 9.65168 14.9999 8.24491 14.9999 6.66667C14.9999 3.90524 12.7613 1.66667 9.99992 1.66667C7.23849 1.66667 4.99992 3.90524 4.99992 6.66667C4.99992 8.24491 5.72922 9.65168 6.8757 10.5707L7.49992 11.0711V13.3333C7.49992 13.7936 7.87301 14.1667 8.33325 14.1667H11.6666C12.1268 14.1667 12.4999 13.7936 12.4999 13.3333V11.0711ZM14.1666 11.8711V13.3333C14.1666 14.714 13.0473 15.8333 11.6666 15.8333H8.33325C6.95254 15.8333 5.83325 14.714 5.83325 13.3333V11.8711C4.30915 10.6494 3.33325 8.77199 3.33325 6.66667C3.33325 2.98477 6.31802 0 9.99992 0C13.6818 0 16.6666 2.98477 16.6666 6.66667C16.6666 8.77199 15.6907 10.6494 14.1666 11.8711Z" fill="#353945"/>
<path d="M8.92259 6.91205C8.59715 6.58661 8.06951 6.58661 7.74408 6.91205C7.41864 7.23748 7.41864 7.76512 7.74408 8.09056L9.16667 9.51315V14.168H10.8333V9.51315L12.2559 8.09056C12.5814 7.76512 12.5814 7.23748 12.2559 6.91205C11.9305 6.58661 11.4028 6.58661 11.0774 6.91205L10 7.98946L8.92259 6.91205Z" fill="#353945"/>
</svg>