<svg width="16" height="16" viewBox="0 0 16 16" fill="none" xmlns="http://www.w3.org/2000/svg">
<g clip-path="url(#clip0_7649_2849)">
<path d="M10 5.9987C10 6.17551 10.0702 6.34508 10.1953 6.4701C10.3203 6.59513 10.4899 6.66536 10.6667 6.66536C10.8435 6.66536 11.013 6.59513 11.1381 6.4701C11.2631 6.34508 11.3333 6.17551 11.3333 5.9987C11.3333 5.82189 11.2631 5.65232 11.1381 5.52729C11.013 5.40227 10.8435 5.33203 10.6667 5.33203C10.4899 5.33203 10.3203 5.40227 10.1953 5.52729C10.0702 5.65232 10 5.82189 10 5.9987Z" stroke="#23262F" stroke-width="1.5" stroke-linecap="round" stroke-linejoin="round"/>
<path d="M4 7.33333L6.66667 6L9 8L8 9.33333" stroke="#23262F" stroke-width="1.5" stroke-linecap="round" stroke-linejoin="round"/>
<path d="M2 11.167C2.20753 11.2702 2.435 11.3271 2.66667 11.3337C2.92633 11.3391 3.18342 11.2813 3.41572 11.1651C3.64802 11.049 3.84855 10.878 4 10.667C4.15145 10.456 4.35198 10.2851 4.58428 10.1689C4.81658 10.0528 5.07367 9.99491 5.33333 10.0004C5.593 9.99491 5.85008 10.0528 6.08238 10.1689C6.31469 10.2851 6.51522 10.456 6.66667 10.667C6.81811 10.878 7.01865 11.049 7.25095 11.1651C7.48325 11.2813 7.74034 11.3391 8 11.3337C8.25966 11.3391 8.51675 11.2813 8.74905 11.1651C8.98135 11.049 9.18189 10.878 9.33333 10.667C9.48478 10.456 9.68531 10.2851 9.91762 10.1689C10.1499 10.0528 10.407 9.99491 10.6667 10.0004C10.9263 9.99491 11.1834 10.0528 11.4157 10.1689C11.648 10.2851 11.8486 10.456 12 10.667C12.1514 10.878 12.352 11.049 12.5843 11.1651C12.8166 11.2813 13.0737 11.3391 13.3333 11.3337C13.565 11.3271 13.7925 11.2702 14 11.167" stroke="#23262F" stroke-width="1.5" stroke-linecap="round" stroke-linejoin="round"/>
</g>
<defs>
<clipPath id="clip0_7649_2849">
<rect width="16" height="16" fill="white"/>
</clipPath>
</defs>
</svg>
