<svg width="32" height="32" viewBox="0 0 32 32" fill="none" xmlns="http://www.w3.org/2000/svg">
<rect width="32" height="32" rx="16" fill="#58C27D"/>
<path d="M23.425 15.2656V11.6073C23.425 10.924 22.9083 10.149 22.2666 9.89062L17.625 7.99062C16.5833 7.56563 15.4083 7.56563 14.3666 7.99062L9.72495 9.89062C9.09162 10.149 8.57495 10.924 8.57495 11.6073V15.2656C8.57495 19.3406 11.5333 23.1573 15.575 24.274C15.85 24.349 16.15 24.349 16.425 24.274C20.4666 23.1573 23.425 19.3406 23.425 15.2656ZM16.625 16.724V18.9156C16.625 19.2573 16.3416 19.5406 16 19.5406C15.6583 19.5406 15.375 19.2573 15.375 18.9156V16.724C14.5333 16.4573 13.9166 15.674 13.9166 14.749C13.9166 13.599 14.85 12.6656 16 12.6656C17.15 12.6656 18.0833 13.599 18.0833 14.749C18.0833 15.6823 17.4666 16.4573 16.625 16.724Z" fill="#FCFCFD"/>
</svg>
