<svg width="32" height="32" viewBox="0 0 32 32" fill="none" xmlns="http://www.w3.org/2000/svg">
<rect width="32" height="32" rx="16" fill="#92A5EF"/>
<path d="M19.4916 7.66797H12.5083C9.47496 7.66797 7.66663 9.4763 7.66663 12.5096V19.4846C7.66663 22.5263 9.47496 24.3346 12.5083 24.3346H19.4833C22.5166 24.3346 24.325 22.5263 24.325 19.493V12.5096C24.3333 9.4763 22.525 7.66797 19.4916 7.66797ZM18.8 17.918C19.0416 18.1596 19.0416 18.5596 18.8 18.8013C18.675 18.9263 18.5166 18.9846 18.3583 18.9846C18.2 18.9846 18.0416 18.9263 17.9166 18.8013L16 16.8846L14.0833 18.8013C13.9583 18.9263 13.8 18.9846 13.6416 18.9846C13.4833 18.9846 13.325 18.9263 13.2 18.8013C12.9583 18.5596 12.9583 18.1596 13.2 17.918L15.1166 16.0013L13.2 14.0846C12.9583 13.843 12.9583 13.443 13.2 13.2013C13.4416 12.9596 13.8416 12.9596 14.0833 13.2013L16 15.118L17.9166 13.2013C18.1583 12.9596 18.5583 12.9596 18.8 13.2013C19.0416 13.443 19.0416 13.843 18.8 14.0846L16.8833 16.0013L18.8 17.918Z" fill="#FCFCFD"/>
</svg>
