<svg width="32" height="32" viewBox="0 0 32 32" fill="none" xmlns="http://www.w3.org/2000/svg">
<rect width="32" height="32" rx="16" fill="#FFD166"/>
<path d="M20.6084 12.4763C20.55 12.468 20.4917 12.468 20.4334 12.4763C19.1417 12.4346 18.1167 11.3763 18.1167 10.0763C18.1167 8.7513 19.1917 7.66797 20.525 7.66797C21.85 7.66797 22.9334 8.74297 22.9334 10.0763C22.925 11.3763 21.9 12.4346 20.6084 12.4763Z" fill="#FCFCFD"/>
<path d="M23.325 18.2503C22.3917 18.8753 21.0834 19.1087 19.875 18.9503C20.1917 18.267 20.3584 17.5087 20.3667 16.7087C20.3667 15.8753 20.1834 15.0837 19.8334 14.392C21.0667 14.2253 22.375 14.4587 23.3167 15.0837C24.6334 15.9503 24.6334 17.3753 23.325 18.2503Z" fill="#FCFCFD"/>
<path d="M11.3667 12.4763C11.425 12.468 11.4834 12.468 11.5417 12.4763C12.8334 12.4346 13.8584 11.3763 13.8584 10.0763C13.8584 8.74297 12.7834 7.66797 11.45 7.66797C10.125 7.66797 9.05005 8.74297 9.05005 10.0763C9.05005 11.3763 10.075 12.4346 11.3667 12.4763Z" fill="#FCFCFD"/>
<path d="M11.4583 16.7088C11.4583 17.5172 11.6333 18.2838 11.95 18.9755C10.775 19.1005 9.54998 18.8505 8.64998 18.2588C7.33331 17.3838 7.33331 15.9588 8.64998 15.0838C9.54164 14.4838 10.8 14.2422 11.9833 14.3755C11.6416 15.0755 11.4583 15.8672 11.4583 16.7088Z" fill="#FCFCFD"/>
<path d="M16.1 19.225C16.0333 19.2167 15.9583 19.2167 15.8833 19.225C14.35 19.175 13.125 17.9167 13.125 16.3667C13.1333 14.7833 14.4083 13.5 16 13.5C17.5833 13.5 18.8667 14.7833 18.8667 16.3667C18.8583 17.9167 17.6417 19.175 16.1 19.225Z" fill="#FCFCFD"/>
<path d="M13.3916 20.9492C12.1333 21.7909 12.1333 23.1742 13.3916 24.0076C14.825 24.9659 17.175 24.9659 18.6083 24.0076C19.8666 23.1659 19.8666 21.7826 18.6083 20.9492C17.1833 19.9909 14.8333 19.9909 13.3916 20.9492Z" fill="#FCFCFD"/>
</svg>
