<svg width="32" height="32" viewBox="0 0 32 32" fill="none" xmlns="http://www.w3.org/2000/svg">
<rect width="32" height="32" rx="16" fill="#8BC5E5"/>
<path d="M16 7.66797C11.4083 7.66797 7.66663 11.4096 7.66663 16.0013C7.66663 20.593 11.4083 24.3346 16 24.3346C20.5916 24.3346 24.3333 20.593 24.3333 16.0013C24.3333 11.4096 20.5916 7.66797 16 7.66797ZM19.625 18.9763C19.5083 19.1763 19.3 19.2846 19.0833 19.2846C18.975 19.2846 18.8666 19.2596 18.7666 19.193L16.1833 17.6513C15.5416 17.268 15.0666 16.4263 15.0666 15.6846V12.268C15.0666 11.9263 15.35 11.643 15.6916 11.643C16.0333 11.643 16.3166 11.9263 16.3166 12.268V15.6846C16.3166 15.9846 16.5666 16.4263 16.825 16.5763L19.4083 18.118C19.7083 18.293 19.8083 18.6763 19.625 18.9763Z" fill="#FCFCFD"/>
</svg>
