<svg width="16" height="16" viewBox="0 0 16 16" fill="none" xmlns="http://www.w3.org/2000/svg">
<g clip-path="url(#clip0_7649_2844)">
<path d="M5.66663 6.66667C5.40141 6.66667 5.14706 6.56131 4.95952 6.37377C4.77198 6.18624 4.66663 5.93188 4.66663 5.66667C4.66663 4.69421 5.05293 3.76158 5.74057 3.07394C6.4282 2.38631 7.36083 2 8.33329 2C9.30575 2 10.2384 2.38631 10.926 3.07394C11.6137 3.76158 12 4.69421 12 5.66667V12.6667C12 13.0203 11.8595 13.3594 11.6094 13.6095C11.3594 13.8595 11.0202 14 10.6666 14H5.99996C5.64634 14 5.3072 13.8595 5.05715 13.6095C4.8071 13.3594 4.66663 13.0203 4.66663 12.6667V11.3333C4.66663 10.4133 5.13996 9.704 5.91996 9.21667L8.86929 7.37333C9.57263 6.93333 9.99996 6.496 9.99996 5.66667C9.99996 5.22464 9.82436 4.80072 9.5118 4.48816C9.19924 4.17559 8.77532 4 8.33329 4C7.89127 4 7.46734 4.17559 7.15478 4.48816C6.84222 4.80072 6.66663 5.22464 6.66663 5.66667C6.66663 5.93188 6.56127 6.18624 6.37373 6.37377C6.1862 6.56131 5.93184 6.66667 5.66663 6.66667Z" stroke="#23262F" stroke-width="1.5" stroke-linecap="round" stroke-linejoin="round"/>
</g>
<defs>
<clipPath id="clip0_7649_2844">
<rect width="16" height="16" fill="white"/>
</clipPath>
</defs>
</svg>
