<svg xmlns="http://www.w3.org/2000/svg" width="16" height="16" viewBox="0 0 16 16" fill="none">
<path d="M3.64657 5.9987C4.93523 5.9987 5.9799 4.95403 5.9799 3.66536C5.9799 2.3767 4.93523 1.33203 3.64657 1.33203C2.3579 1.33203 1.31323 2.3767 1.31323 3.66536C1.31323 4.95403 2.3579 5.9987 3.64657 5.9987Z" stroke="#353945"/>
<path d="M11.3133 10H13.3133C14.0466 10 14.6466 10.6 14.6466 11.3333V13.3333C14.6466 14.0667 14.0466 14.6667 13.3133 14.6667H11.3133C10.58 14.6667 9.97998 14.0667 9.97998 13.3333V11.3333C9.97998 10.6 10.58 10 11.3133 10Z" stroke="#353945"/>
<path d="M7.99988 3.33203H9.78655C11.0199 3.33203 11.5932 4.8587 10.6665 5.67203L5.33988 10.332C4.41322 11.1387 4.98655 12.6654 6.21322 12.6654H7.99988" stroke="#353945" stroke-linecap="round" stroke-linejoin="round"/>
<path d="M3.65748 3.66536H3.66518" stroke="#353945" stroke-width="1.33333" stroke-linecap="round" stroke-linejoin="round"/>
<path d="M12.3242 12.3333H12.3319" stroke="#353945" stroke-width="1.33333" stroke-linecap="round" stroke-linejoin="round"/>
</svg>