<svg xmlns="http://www.w3.org/2000/svg" width="18" height="20" viewBox="0 0 18 20" fill="none">
<path d="M17.9098 9.12031V4.73031C17.9098 3.91031 17.2898 2.98031 16.5198 2.67031L10.9498 0.390312C9.69984 -0.119687 8.28984 -0.119687 7.03984 0.390312L1.46984 2.67031C0.709844 2.98031 0.0898438 3.91031 0.0898438 4.73031V9.12031C0.0898438 14.0103 3.63984 18.5903 8.48984 19.9303C8.81984 20.0203 9.17984 20.0203 9.50984 19.9303C14.3598 18.5903 17.9098 14.0103 17.9098 9.12031ZM9.74984 10.8703V13.5003C9.74984 13.9103 9.40984 14.2503 8.99984 14.2503C8.58984 14.2503 8.24984 13.9103 8.24984 13.5003V10.8703C7.23984 10.5503 6.49984 9.61031 6.49984 8.50031C6.49984 7.12031 7.61984 6.00031 8.99984 6.00031C10.3798 6.00031 11.4998 7.12031 11.4998 8.50031C11.4998 9.62031 10.7598 10.5503 9.74984 10.8703Z" fill="#777E91"/>
</svg>