<svg xmlns="http://www.w3.org/2000/svg" width="17" height="16" viewBox="0 0 17 16" fill="none">
<path d="M8.49992 1.33203C8.13173 1.33203 7.83325 1.63051 7.83325 1.9987V3.9987C7.83325 4.36689 8.13173 4.66536 8.49992 4.66536C8.86811 4.66536 9.16659 4.36689 9.16659 3.9987V1.9987C9.16659 1.63051 8.86811 1.33203 8.49992 1.33203Z" fill="#777E91"/>
<path d="M8.49992 11.332C8.13173 11.332 7.83325 11.6305 7.83325 11.9987V13.9987C7.83325 14.3669 8.13173 14.6654 8.49992 14.6654C8.86811 14.6654 9.16659 14.3669 9.16659 13.9987V11.9987C9.16659 11.6305 8.86811 11.332 8.49992 11.332Z" fill="#777E91"/>
<path d="M14.4999 7.33203C14.8681 7.33203 15.1666 7.63051 15.1666 7.9987C15.1666 8.36689 14.8681 8.66536 14.4999 8.66536H12.4999C12.1317 8.66536 11.8333 8.36689 11.8333 7.9987C11.8333 7.63051 12.1317 7.33203 12.4999 7.33203H14.4999Z" fill="#777E91"/>
<path d="M5.16659 7.9987C5.16659 7.63051 4.86811 7.33203 4.49992 7.33203H2.49992C2.13173 7.33203 1.83325 7.63051 1.83325 7.9987C1.83325 8.36689 2.13173 8.66536 2.49992 8.66536H4.49992C4.86811 8.66536 5.16659 8.36689 5.16659 7.9987Z" fill="#777E91"/>
<path d="M12.2712 3.28472C12.5315 3.02437 12.9536 3.02437 13.214 3.28472C13.4743 3.54507 13.4743 3.96718 13.214 4.22753L11.7998 5.64174C11.5394 5.90209 11.1173 5.90209 10.857 5.64174C10.5966 5.38139 10.5966 4.95928 10.857 4.69893L12.2712 3.28472Z" fill="#777E91"/>
<path d="M6.14287 10.3557C5.88252 10.0953 5.46041 10.0953 5.20006 10.3557L3.78585 11.7699C3.5255 12.0302 3.5255 12.4524 3.78585 12.7127C4.0462 12.9731 4.46831 12.9731 4.72866 12.7127L6.14287 11.2985C6.40322 11.0381 6.40322 10.616 6.14287 10.3557Z" fill="#777E91"/>
<path d="M13.214 11.77C13.4743 12.0303 13.4743 12.4524 13.214 12.7128C12.9536 12.9731 12.5315 12.9731 12.2712 12.7128L10.857 11.2986C10.5966 11.0382 10.5966 10.6161 10.857 10.3558C11.1173 10.0954 11.5394 10.0954 11.7998 10.3558L13.214 11.77Z" fill="#777E91"/>
<path d="M6.14293 5.64165C6.40328 5.3813 6.40328 4.95919 6.14293 4.69884L4.72872 3.28463C4.46837 3.02428 4.04626 3.02428 3.78591 3.28463C3.52556 3.54498 3.52556 3.96709 3.78591 4.22744L5.20013 5.64165C5.46047 5.902 5.88259 5.902 6.14293 5.64165Z" fill="#777E91"/>
</svg>