<svg width="14" height="14" viewBox="0 0 14 14" fill="none" xmlns="http://www.w3.org/2000/svg">
<path d="M6.3879 1.08612C6.6195 0.549418 7.38051 0.549418 7.61211 1.08612L9.06547 4.45404C9.16353 4.6813 9.37943 4.83552 9.62621 4.85459L13.3533 5.14258C13.9513 5.18879 14.1889 5.9395 13.7264 6.32136L10.9235 8.63554C10.7258 8.79877 10.6392 9.06091 10.7008 9.30979L11.5634 12.7953C11.7053 13.3685 11.0869 13.8296 10.578 13.53L7.33822 11.6227C7.12949 11.4998 6.87053 11.4998 6.66179 11.6227L3.42197 13.53C2.9131 13.8296 2.29475 13.3686 2.43661 12.7953L3.29924 9.30979C3.36083 9.06091 3.27425 8.79877 3.07654 8.63554L0.273618 6.32136C-0.188888 5.9395 0.0487156 5.18879 0.646707 5.14258L4.37381 4.85459C4.62058 4.83552 4.83648 4.6813 4.93455 4.45404L6.3879 1.08612Z" fill="#FFD166"/>
</svg>
