<svg width="40" height="40" viewBox="0 0 40 40" fill="none" xmlns="http://www.w3.org/2000/svg">
<path d="M23.8578 22.4829L23.858 22.4827C24.8594 21.8503 25.4448 20.9648 25.4448 19.9975C25.4448 19.0312 24.8606 18.1415 23.8613 17.4994L23.8614 17.4993L23.8578 17.4971L19.165 14.5373C18.1252 13.8806 17.0497 13.7285 16.2011 14.2327C15.3623 14.731 14.94 15.7571 14.94 17.02V22.96C14.94 24.2229 15.3623 25.249 16.2011 25.7474C17.0497 26.2515 18.1252 26.0995 19.165 25.4428L23.8578 22.4829ZM10.5 4.5H29.5C32.2284 4.5 34.4671 5.45443 36.025 7.09437C37.5851 8.73663 38.5 11.1062 38.5 14V26C38.5 28.8938 37.5851 31.2634 36.025 32.9056C34.4671 34.5456 32.2284 35.5 29.5 35.5H10.5C7.77158 35.5 5.53295 34.5456 3.975 32.9056C2.41485 31.2634 1.5 28.8938 1.5 26V14C1.5 11.1062 2.41485 8.73663 3.975 7.09437C5.53295 5.45443 7.77158 4.5 10.5 4.5Z" fill="#F70000" stroke="#F70000"/>
</svg>
