<svg xmlns="http://www.w3.org/2000/svg" width="16" height="16" viewBox="0 0 16 16" fill="none">
<path fill-rule="evenodd" clip-rule="evenodd" d="M9.93726 10.8786C9.03414 11.5806 7.8993 11.9987 6.66683 11.9987C3.72131 11.9987 1.3335 9.61088 1.3335 6.66536C1.3335 3.71985 3.72131 1.33203 6.66683 1.33203C9.61235 1.33203 12.0002 3.71985 12.0002 6.66536C12.0002 7.89784 11.5821 9.03267 10.8801 9.93579L14.4716 13.5273C14.7319 13.7876 14.7319 14.2098 14.4716 14.4701C14.2112 14.7305 13.7891 14.7305 13.5288 14.4701L9.93726 10.8786ZM10.6668 6.66536C10.6668 8.8745 8.87597 10.6654 6.66683 10.6654C4.45769 10.6654 2.66683 8.8745 2.66683 6.66536C2.66683 4.45623 4.45769 2.66536 6.66683 2.66536C8.87597 2.66536 10.6668 4.45623 10.6668 6.66536Z" fill="#777E91"/>
<path d="M6.66667 4C6.29848 4 6 4.29848 6 4.66667V6H4.66667C4.29848 6 4 6.29848 4 6.66667C4 7.03486 4.29848 7.33333 4.66667 7.33333H6V8.66667C6 9.03486 6.29848 9.33333 6.66667 9.33333C7.03486 9.33333 7.33333 9.03486 7.33333 8.66667V7.33333H8.66667C9.03486 7.33333 9.33333 7.03486 9.33333 6.66667C9.33333 6.29848 9.03486 6 8.66667 6H7.33333V4.66667C7.33333 4.29848 7.03486 4 6.66667 4Z" fill="#777E91"/>
</svg>